# xmcd CD database file
#
# Track frame offsets:
#	150
#	38267
#	70535
#	101385
#	127987
#	159067
#	187295
#	225265
#	255277
#
# Disc length: 3772 seconds
#
# Revision: 5
# Processed by: cddbd v1.5.2PL0 Copyright (c) Steve Scherf et al.
# Submitted via: CDex 1.70beta2
#
DISCID=580eba09
DTITLE=Pat Metheny, Dave Holland and Roy Haynes - Question and answer
DYEAR=1990
DGENRE=Jazz
TTITLE0=Solar
TTITLE1=Question and answer
TTITLE2=H and H
TTITLE3=Never too far away
TTITLE4=Law years
TTITLE5=Change of heart
TTITLE6=All the things you are
TTITLE7=Old folks
TTITLE8=Three flights up
EXTD=YEAR: 1990
EXTT0=
EXTT1=
EXTT2=
EXTT3=
EXTT4=
EXTT5=
EXTT6=
EXTT7=
EXTT8=
PLAYORDER=
